<svg width="56" height="55" viewBox="0 0 56 55" fill="none" xmlns="http://www.w3.org/2000/svg">
<rect y="7" width="46" height="48" rx="2" fill="#D0F5DA"/>
<path d="M54.5059 25.3008C55.331 25.3008 56 24.6318 56 23.8066V12.6504C56 11.8252 55.331 11.1562 54.5059 11.1562C53.4643 11.1562 33.1167 11.1562 31.9941 11.1562V1.49414C31.9941 0.668977 31.3252 0 30.5 0H14.5625C13.7373 0 13.0684 0.668977 13.0684 1.49414V11.1562H6.49414C5.66898 11.1562 5 11.8252 5 12.6504V23.8066C5 24.6318 5.66898 25.3008 6.49414 25.3008H13.0684V33.4688H6.49414C5.66898 33.4688 5 34.1377 5 34.9629V46.1191C5 46.9443 5.66898 47.6133 6.49414 47.6133H54.5059C55.331 47.6133 56 46.9443 56 46.1191V34.9629C56 34.1377 55.331 33.4688 54.5059 33.4688H47.9316V25.3008H54.5059ZM53.0117 22.3125C51.4132 22.3125 41.5432 22.3125 39.9629 22.3125V14.1445H53.0117V22.3125ZM36.9746 22.3125C35.4096 22.3125 25.6007 22.3125 24.0254 22.3125V14.1445H36.9746V22.3125ZM16.0566 2.98828H29.0059V11.1562C27.4409 11.1562 17.632 11.1562 16.0566 11.1562V2.98828ZM7.98828 22.3125V14.1445H21.0371V22.3125C19.4561 22.3125 9.58651 22.3125 7.98828 22.3125ZM16.0566 25.3008H29.0059V33.4688C27.4409 33.4688 17.632 33.4688 16.0566 33.4688V25.3008ZM7.98828 36.457H21.0371V44.625H7.98828V36.457ZM24.0254 36.457H36.9746V44.625H24.0254V36.457ZM53.0117 36.457V44.625H39.9629V36.457H53.0117ZM44.9434 33.4688C43.3784 33.4688 33.5695 33.4688 31.9941 33.4688V25.3008H44.9434V33.4688Z" fill="#3B4951"/>
</svg>
