<svg width="58" height="57" viewBox="0 0 58 57" fill="none" xmlns="http://www.w3.org/2000/svg">
<rect y="9" width="46" height="48" rx="2" fill="#F5D0D0"/>
<path d="M45.0305 19.1327L45.7958 20.1531C46.0509 20.4082 46.306 20.6634 46.5611 20.6634C46.8162 20.6634 47.0714 20.6634 47.3264 20.4083L52.9387 15.3062C53.4489 14.7959 53.4489 14.0307 52.9387 13.5205L40.9489 0.510251C40.6938 0.255177 40.4386 0 40.1835 0C39.9285 0 39.4182 0 39.1631 0.255074L33.5509 5.35717C33.0406 5.86742 33.0406 6.63264 33.5509 7.1429L34.3162 8.16329L25.1325 16.5817L24.3672 15.5613C23.857 15.051 23.0917 15.051 22.5815 15.5613L16.9692 20.6634C16.7142 20.9184 16.459 21.1736 16.459 21.4287C16.459 21.6838 16.459 22.194 16.7141 22.4491L28.7039 35.7144C28.959 35.9695 29.2141 36.2246 29.4692 36.2246C29.7243 36.2246 29.9795 36.2246 30.2345 35.9696L35.8468 30.8675C36.1018 30.6124 36.357 30.3572 36.357 30.1021C36.357 29.8471 36.357 29.3368 36.1019 29.0817L35.3366 28.0613L37.1223 26.2756L51.9183 42.3471C52.1734 42.6022 52.4285 42.8574 52.6836 42.8574C52.9387 42.8574 53.1939 42.8574 53.4489 42.6023L57.2755 39.0309C57.7857 38.5206 57.7857 37.7554 57.2755 37.2451L42.4794 21.1735L45.0305 19.1327ZM40.1835 2.80612L50.6428 14.0306L46.8163 17.347L46.051 16.3266L37.3774 6.88772L36.6121 5.86732L40.1835 2.80612ZM29.9795 32.9083L19.5202 21.6837L23.3467 18.1122L25.1324 20.153L32.7855 28.5714L33.5508 29.5918L29.9795 32.9083ZM26.9182 18.3674L36.3569 9.69384L43.2447 17.0918L40.4386 19.6429L36.6121 23.4694L33.806 26.0204L26.9182 18.3674ZM54.9795 37.7552L53.1938 39.5409L39.4182 24.4899L41.2039 22.7042L54.9795 37.7552Z" fill="#3B4951"/>
<path d="M41.7145 48.7247V43.6226C41.7145 42.8573 41.2042 42.3471 40.439 42.3471H36.6125V38.5206C36.6125 37.7553 36.1022 37.2451 35.337 37.2451H12.3776C11.6122 37.2451 11.1021 37.7554 11.1021 38.5206V42.3471H7.27547C6.51025 42.3471 6 42.8574 6 43.6227V48.7248C6 49.4901 6.51025 50.0003 7.27547 50.0003H40.4389C41.2042 50.0003 41.7145 49.49 41.7145 48.7247ZM13.653 39.7961H34.0613V42.3471H13.653V39.7961ZM39.1634 47.4492H8.55105V44.8982H12.3776H35.3368H39.1633V47.4492H39.1634Z" fill="#3B4951"/>
</svg>
