<svg width="108" height="30" viewBox="0 0 108 30" fill="none" xmlns="http://www.w3.org/2000/svg">
<path d="M7.86861 18.7263C5.95023 18.7263 4.45455 17.3684 4.45455 15.3474C4.45455 13.4211 5.95023 12 7.86861 12C9.78699 12 11.3152 13.4211 11.3152 15.3474C11.3152 17.3684 9.81951 18.7263 7.86861 18.7263ZM13.4612 20.9053C14.9894 19.4842 15.7697 17.6211 15.7697 15.3474C15.7697 13.0737 14.9894 11.2421 13.4612 9.82106C11.933 8.4 10.0796 7.70527 7.86861 7.70527C5.6576 7.70527 3.80425 8.4 2.27604 9.82106C0.747843 11.2421 0 13.0737 0 15.3474C0 17.6211 0.747843 19.4842 2.27604 20.9053C3.80425 22.3263 5.6576 23.0211 7.86861 23.0211C10.0796 23.0211 11.933 22.3263 13.4612 20.9053ZM25.554 0C21.1645 0 18.6934 2.49474 18.6934 7.01053V8.02105H15.8321V11.4947H18.6934V22.7684H23.2455V11.4947H26.3019V8.02105H23.2455V7.01053C23.2455 5.14737 24.0258 4.2 25.554 4.2H27.2123V0H25.554ZM33.3224 17.2105C34.3954 17.4947 34.8181 17.8421 34.8181 18.4737C34.8181 19.2 34.0052 19.6737 32.9647 19.7053C31.7617 19.7053 30.7537 18.8842 30.7212 18H26.4942C26.5268 19.5474 27.1445 20.8105 28.4126 21.7263C29.6807 22.6421 31.1764 23.0842 32.8347 23.0842C34.5905 23.0842 36.1187 22.6737 37.4193 21.8842C38.7163 21.1161 39.367 20.0191 39.4012 18.5933L39.4027 18.4737C39.4027 17.5895 39.2726 16.7684 37.9395 15.5368C37.3202 14.9654 36.4944 14.5086 35.4341 14.2208L32.7046 13.5158C31.8592 13.2947 31.404 12.9474 31.3715 12.4105C31.339 11.7474 31.9567 11.3053 32.9647 11.3053C34.1027 11.3053 34.6555 11.7474 34.688 12.6H38.9475C38.9149 10.9263 38.2972 9.69474 37.0941 8.90527C35.8911 8.1158 34.4279 7.70527 32.7046 7.70527C31.1114 7.70527 29.7457 8.14737 28.5752 9C27.4047 9.85264 26.8194 10.8 26.7869 11.9053L26.781 12.1262C26.7681 12.9088 26.86 13.4105 27.3071 14.3368C27.8274 15.3158 29.2255 16.1684 31.339 16.7053L33.3224 17.2105ZM45.4802 15.4421C45.4802 13.3895 47.041 11.8737 48.9919 11.8737C50.9428 11.8737 52.5035 13.3263 52.5035 15.4421C52.5035 17.4947 50.9428 18.9474 48.9919 18.9474C47.041 18.9474 45.4802 17.5895 45.4802 15.4421ZM40.8956 30H45.3827V20.9684C46.1306 22.2632 47.8864 23.0842 49.8372 23.0842C51.8532 23.0842 53.5765 22.3579 55.0071 20.9368C56.4703 19.5158 57.1856 17.6526 57.1856 15.3474C57.1856 13.1053 56.4703 11.2737 55.0071 9.85263C53.5765 8.43158 51.8532 7.70527 49.8372 7.70527C47.8864 7.70527 46.1306 8.49473 45.3827 9.85263V8.02105H40.8956V30ZM84.845 7.70527C82.6014 7.70527 80.6506 8.43158 79.0248 9.85263C77.3991 11.2737 76.5862 13.1053 76.5862 15.3474C76.5862 17.5895 77.3991 19.4526 79.0248 20.9053C80.6506 22.3579 82.6014 23.0842 84.845 23.0842C87.5762 23.0842 90.0149 21.9158 91.4455 19.9263L87.7713 17.4C87.121 18.3789 86.1456 18.8842 84.845 18.8842C83.837 18.8842 82.9591 18.5684 82.2113 17.9053C81.4634 17.2421 81.0732 16.3895 81.0732 15.3474C81.0732 14.3757 81.434 13.5792 82.1266 12.9579L82.2113 12.8842C82.9591 12.2211 83.837 11.9053 84.845 11.9053C86.1456 11.9053 87.121 12.4105 87.7713 13.3895L91.4455 10.8316C89.9823 8.84211 87.5437 7.70527 84.845 7.70527ZM103.343 17.9053C102.595 18.8211 101.49 19.2947 100.027 19.2947C98.2384 19.2947 96.5151 18.4421 96.2875 16.8316H107.408L107.442 16.2881C107.46 15.9992 107.473 15.7303 107.473 15.4737C107.473 13.2246 106.761 11.3964 105.337 9.98898L105.229 9.88421C103.766 8.43158 101.913 7.70527 99.7016 7.70527C97.4581 7.70527 95.5722 8.4 94.044 9.82106C92.5158 11.2421 91.768 13.0737 91.768 15.3474C91.768 17.6211 92.5158 19.4842 94.044 20.9368C95.5722 22.3579 97.4581 23.0842 99.7016 23.0842C102.921 23.0842 105.229 22.0737 106.627 20.0842L103.343 17.9053ZM74.3589 18.8211V23.0974H59.4563V18.8211H74.3589ZM102.921 14.0842H96.3526C97.0679 10.7053 102.465 10.7368 102.921 14.0842Z" fill="#2C373E"/>
</svg>
