<svg width="149" height="24" viewBox="0 0 149 24" fill="none" xmlns="http://www.w3.org/2000/svg">
<path d="M13.1787 0.395312L16.38 7.97212L24.5756 8.67619C25.144 8.72528 25.3752 9.43452 24.9438 9.80787L18.7273 15.1937L20.5902 23.2058C20.7194 23.7626 20.1161 24.2006 19.6277 23.9047L12.5845 19.6571L5.54119 23.9047C5.05157 24.1993 4.44956 23.7613 4.57875 23.2058L6.44162 15.1937L0.223857 9.80657C-0.207627 9.43322 0.0223257 8.72399 0.59204 8.6749L8.78765 7.97083L11.9889 0.395312C12.2111 -0.131771 12.9565 -0.131771 13.1787 0.395312Z" fill="#ECC80F"/>
<path d="M43.9424 0.395312L47.1436 7.97212L55.3393 8.67619C55.9077 8.72528 56.1389 9.43452 55.7074 9.80787L49.491 15.1937L51.3538 23.2058C51.483 23.7626 50.8797 24.2006 50.3914 23.9047L43.3481 19.6571L36.3049 23.9047C35.8152 24.1993 35.2132 23.7613 35.3424 23.2058L37.2053 15.1937L30.9875 9.80657C30.556 9.43322 30.786 8.72399 31.3557 8.6749L39.5513 7.97083L42.7526 0.395312C42.9748 -0.131771 43.7202 -0.131771 43.9424 0.395312Z" fill="#ECC80F"/>
<path d="M74.708 0.395312L77.9093 7.97212L86.1049 8.67619C86.6733 8.72528 86.9045 9.43452 86.4731 9.80787L80.2566 15.1937L82.1195 23.2058C82.2486 23.7626 81.6453 24.2006 81.157 23.9047L74.1138 19.6571L67.0705 23.9047C66.5809 24.1993 65.9789 23.7613 66.108 23.2058L67.9709 15.1937L61.7532 9.80657C61.3217 9.43322 61.5516 8.72399 62.1213 8.6749L70.317 7.97083L73.5182 0.395312C73.7404 -0.131771 74.4858 -0.131771 74.708 0.395312Z" fill="#ECC80F"/>
<path d="M105.472 0.395312L108.673 7.97212L116.869 8.67619C117.437 8.72528 117.668 9.43452 117.237 9.80787L111.02 15.1937L112.883 23.2058C113.012 23.7626 112.409 24.2006 111.921 23.9047L104.877 19.6571L97.8342 23.9047C97.3445 24.1993 96.7425 23.7613 96.8717 23.2058L98.7346 15.1937L92.5168 9.80657C92.0853 9.43322 92.3153 8.72399 92.885 8.6749L101.081 7.97083L104.282 0.395312C104.504 -0.131771 105.249 -0.131771 105.472 0.395312Z" fill="#ECC80F"/>
<path d="M136.237 0.395312L139.439 7.97212L147.634 8.67619C148.203 8.72528 148.434 9.43452 148.002 9.80787L141.786 15.1937L143.649 23.2058C143.778 23.7626 143.175 24.2006 142.686 23.9047L135.643 19.6571L128.6 23.9047C128.11 24.1993 127.508 23.7613 127.637 23.2058L129.5 15.1937L123.282 9.80657C122.851 9.43322 123.081 8.72399 123.651 8.6749L131.846 7.97083L135.047 0.395312C135.27 -0.131771 136.015 -0.131771 136.237 0.395312Z" fill="#ECC80F"/>
</svg>
